<svg width="61" height="64" viewBox="0 0 61 64" fill="none" xmlns="http://www.w3.org/2000/svg">
<path fill-rule="evenodd" clip-rule="evenodd" d="M16.059 8.50894C16.3216 8.4767 16.7925 8.3103 17.1056 8.13936C17.4186 7.96823 17.9861 7.75567 18.3666 7.66695C18.7471 7.57822 19.7429 7.2963 20.5794 7.04067C21.4161 6.78523 22.3133 6.54607 22.5733 6.50929C22.8332 6.47251 23.8024 6.25841 24.727 6.03347C25.6515 5.80834 26.8146 5.53172 27.3116 5.41841C35.3546 3.58766 45.2997 1.41375 45.924 1.35008C46.1896 1.32295 47.2307 1.13391 48.2375 0.929631C50.7047 0.429548 53.5582 0.160171 54.0949 0.376645C54.336 0.473652 55.1167 0.947002 55.8298 1.4281L57.1261 2.30302L57.2321 3.52045C57.2905 4.19004 57.2897 4.80369 57.2307 4.88392C57.1718 4.96435 57.1732 5.11646 57.2342 5.22206C57.2952 5.32767 57.4154 6.35595 57.5014 7.50723C58.142 16.0812 58.0918 15.281 58.2528 19.4699C58.3022 20.7561 58.3273 21.9339 58.3083 22.0875C58.2893 22.241 58.3686 22.8796 58.4847 23.5065C58.7762 25.0829 58.8836 25.9485 59.1504 28.8693C59.232 29.7624 59.3341 30.5552 59.3773 30.6309C59.4206 30.7066 59.4813 31.2648 59.5127 31.8713C59.583 33.2297 59.87 34.4728 60.3819 35.6348C60.9249 36.868 60.5944 37.7517 58.8122 39.8337C58.5183 40.177 58.1427 40.6222 57.9775 40.8231C57.4305 41.4886 56.5832 42.3548 55.4057 43.4528C54.7661 44.0494 54.0689 44.7346 53.8566 44.9758C53.6442 45.2167 52.8253 46.0895 52.0367 46.9152C51.248 47.7408 50.4698 48.5847 50.3075 48.7905C49.8079 49.4231 47.8487 51.5291 47.2317 52.0968C44.7953 54.338 42.6204 56.4915 42.3139 56.9662C41.8645 57.6627 41.0268 57.9291 38.7067 58.1141C37.4218 58.2165 36.1599 58.3341 35.9026 58.3755C35.6452 58.4168 34.9609 58.5265 34.3818 58.6193C33.8027 58.7122 33.1166 58.8189 32.8571 58.8564C32.5976 58.8939 31.7621 59.0407 31.0003 59.1825C30.2387 59.3244 29.2914 59.4767 28.8953 59.5212C28.4992 59.5657 27.3964 59.7476 26.4447 59.9256C24.5899 60.2723 23.7816 60.3955 23.0998 60.4351C22.8636 60.4488 22.588 60.5077 22.4874 60.5659C22.3867 60.624 21.3641 60.7601 20.215 60.8684C19.0658 60.9767 18.0597 61.1034 17.9792 61.1499C17.8987 61.1964 17.1511 61.2873 16.3176 61.3522C15.4843 61.4169 14.7389 61.5059 14.6611 61.55C14.5832 61.594 14.2349 61.6437 13.8869 61.6604C13.5387 61.6772 12.4729 61.8236 11.5186 61.986C10.564 62.1483 9.65843 62.2548 9.50634 62.2224C9.35406 62.1902 9.03644 62.2755 8.80005 62.4119C8.56366 62.5484 8.27934 62.6116 8.16782 62.5526C8.05649 62.4935 7.70704 62.5196 7.39122 62.6106C7.0754 62.7016 6.31586 62.8325 5.70342 62.9012C5.09068 62.9698 4.38145 63.0644 4.12707 63.1108C3.8728 63.1574 3.11405 63.2379 2.44084 63.2895C1.41892 63.368 1.15313 63.2946 0.830418 62.845C0.27922 62.0771 0.171305 60.7129 0.585442 59.7491C0.781218 59.2939 1.4644 58.3329 2.10358 57.6136C2.74276 56.8943 3.94889 55.4967 4.78371 54.5075C6.47038 52.5094 8.79848 49.9071 10.6098 47.9953C12.8068 45.6763 13.3213 45.0417 13.3046 44.6705C13.1794 41.8663 12.2822 28.7642 12.0577 26.4645C11.8347 24.1788 11.5149 18.6496 11.4928 16.6968C11.4811 15.6627 11.4463 14.1051 11.4156 13.2353C11.3848 12.3656 11.4449 11.4545 11.5491 11.2104C11.7661 10.7033 15.2666 8.60635 16.059 8.50894ZM12.7146 12.1674C12.6309 12.4718 12.6441 13.969 12.7437 15.4942C13.1156 21.1773 13.6776 29.4903 13.7852 30.8925C13.8464 31.69 13.9918 33.65 14.1085 35.2481C14.2252 36.8462 14.4037 39.1846 14.5053 40.4445C14.6069 41.7043 14.7064 43.0562 14.7267 43.4487C14.769 44.2649 14.8621 44.2951 16.2937 43.9564C16.8062 43.8351 18.1047 43.5654 19.1794 43.357C20.2541 43.1484 21.3296 42.9193 21.5695 42.8477C21.8092 42.7759 22.2194 42.6895 22.4809 42.6553C22.7424 42.6212 23.8638 42.3719 24.9729 42.1013C26.0821 41.8308 27.1999 41.5753 27.4572 41.5338C27.7143 41.4921 28.5317 41.3139 29.2736 41.1379C30.0154 40.9617 30.7447 40.8404 30.8945 40.8683C31.0441 40.8962 31.3477 40.8143 31.5692 40.6864C31.7906 40.5586 32.0957 40.4791 32.2469 40.5099C32.3984 40.5408 33.1676 40.3889 33.9566 40.1726C34.7456 39.9563 35.6917 39.7023 36.059 39.6078C36.4263 39.5136 37.2583 39.2611 37.9078 39.0466C39.1627 38.6327 41.0212 38.157 41.8053 38.049C43.1026 37.8706 47.4219 36.8107 48.6344 36.3733C50.8998 35.5562 53.1649 34.7986 53.9905 34.5815C54.4178 34.4693 55.1094 34.2043 55.5273 33.9926C56.267 33.6175 56.2823 33.5771 56.1149 32.4451C56.0203 31.8057 55.9119 30.9599 55.874 30.5654C55.8065 29.864 55.5963 27.9446 55.4842 27.0053C55.4532 26.7456 55.376 26.0248 55.3125 25.4039C55.249 24.7826 55.1734 24.2333 55.1444 24.1829C55.1153 24.1326 55.0354 23.4961 54.9669 22.7685C54.8983 22.041 54.7862 20.8506 54.7176 20.123C54.649 19.3955 54.5491 18.7244 54.4957 18.6318C54.4423 18.5393 54.4468 18.3979 54.5059 18.3174C54.5649 18.2371 54.5635 17.3484 54.5029 16.3424C54.0765 9.28044 53.9662 6.94636 53.9747 5.1657C53.9887 2.21376 53.5469 1.67796 51.2844 1.90164C49.4464 2.08342 47.9361 2.31895 46.2322 2.68925C45.4601 2.85722 44.6303 2.99713 44.388 3.00026C44.1457 3.00339 43.8156 3.08215 43.6546 3.17513C43.4935 3.26811 43.1662 3.3516 42.9274 3.36078C42.6886 3.36997 41.9395 3.51405 41.2628 3.68139C40.586 3.84854 39.8175 4.01166 39.5548 4.04371C38.6739 4.1518 37.7083 4.36763 36.2721 4.77792C35.4876 5.00198 34.6348 5.21831 34.3768 5.2585C34.1189 5.29888 32.9929 5.54019 31.8745 5.79475C30.7562 6.0495 29.6767 6.27177 29.4756 6.28871C29.2745 6.30565 28.1605 6.56778 27 6.87114C25.8395 7.17449 24.6757 7.44998 24.4137 7.48317C23.9753 7.53895 22.6164 7.87958 20.3943 8.49105C19.909 8.6246 19.2698 8.77213 18.9738 8.81862C18.6777 8.86512 18.1557 9.05674 17.8138 9.24459C17.4717 9.43224 16.9772 9.61225 16.7146 9.64449C16.452 9.67673 15.4788 10.1331 14.552 10.6584C13.1588 11.4481 12.8404 11.7097 12.7146 12.1674ZM17.3663 14.3154C19.2699 13.7839 21.606 13.2608 25.6283 12.4649C28.4576 11.9052 31.5564 11.1197 33.7674 10.4016C34.5864 10.1354 35.7928 9.8288 39.3398 8.98437C42.7567 8.17091 44.5433 7.7796 44.9531 7.75495C45.1891 7.74084 45.4862 7.66923 45.6131 7.59596C45.8415 7.46412 49.2585 6.62483 50.163 6.47838C51.7271 6.2251 51.941 6.2417 52.3354 6.64636C52.9969 7.32504 53.1686 8.744 53.9167 19.709C54.3764 26.4488 54.3869 26.6228 54.3435 26.7806C54.2838 26.9978 54.3003 27.6678 54.4353 30.5356C54.5016 31.9419 54.5125 33.2599 54.4593 33.464C54.3314 33.9562 52.9226 34.7522 51.6778 35.0353C48.9966 35.6451 48.0648 35.8795 46.4488 36.3512C45.4863 36.6324 44.4848 36.8901 44.2232 36.924C43.9618 36.9582 43.1436 37.135 42.4051 37.3169C41.6665 37.4988 40.8928 37.653 40.6856 37.6594C40.026 37.6796 36.7922 38.428 36.4097 38.6488C36.2072 38.7657 35.9391 38.8069 35.8138 38.7405C35.6885 38.674 35.3928 38.7312 35.1564 38.8677C34.92 39.0042 34.6039 39.0923 34.4539 39.0636C34.3035 39.0348 33.7304 39.1278 33.18 39.2702C32.6295 39.4126 31.4152 39.6007 30.4814 39.6878C29.5477 39.7752 28.2221 39.9697 27.5358 40.1204C26.8495 40.2709 26.095 40.4057 25.859 40.4198C25.6231 40.4341 25.2982 40.5218 25.1372 40.6148C24.9761 40.7078 23.7872 41.0101 22.4951 41.2865C21.2028 41.563 19.6011 42.0237 18.9357 42.3105C18.2703 42.597 17.3418 42.8638 16.8725 42.9033C15.6645 43.0052 15.3072 42.4232 15.2837 40.3153C15.264 38.5345 15.0983 35.3628 14.7176 29.471C14.5096 26.2518 14.4581 24.8662 14.4107 21.1947C14.4018 20.5059 14.4428 19.0958 14.5016 18.0613C14.6505 15.4486 15.0151 14.9716 17.3663 14.3154ZM15.9978 18.0072C15.9239 19.0214 15.8749 20.2827 15.8889 20.8098C15.9333 22.4762 15.9341 23.3392 15.8916 23.494C15.7659 23.9511 16.2517 33.8584 16.4135 34.1386C16.5587 34.3902 16.8516 38.2319 16.8796 40.2506C16.8961 41.4392 17.2669 41.8782 17.9304 41.4951C18.1817 41.35 18.6813 41.1633 19.041 41.08C19.4004 40.9969 20.2968 40.7762 21.0325 40.5894C22.6285 40.1845 28.3096 38.9542 28.9853 38.8675C29.2471 38.8339 30.0203 38.6789 30.7038 38.5233C31.3872 38.3677 32.1589 38.2101 32.4188 38.1731C32.6785 38.136 33.5938 37.9282 34.4528 37.7114C37.8914 36.8435 38.7914 36.629 41.0819 36.132C42.3937 35.8472 43.6808 35.5861 43.942 35.5514C44.2033 35.5169 45.1047 35.2851 45.9452 35.0363C46.7858 34.7877 48.0356 34.4618 48.7225 34.3122C51.2104 33.7705 52.9605 33.1499 53.1086 32.757C53.1848 32.5551 53.1988 31.6105 53.1395 30.6578C53.0806 29.7052 53.0231 28.0224 53.0123 26.9184C52.9928 24.9719 52.8815 22.8794 52.7062 21.165C52.5517 19.6573 52.4181 17.6859 52.4171 16.9045C52.4165 16.4824 52.3578 15.7497 52.2867 15.2764C52.2155 14.8033 52.2274 14.3757 52.3132 14.3261C52.3989 14.2767 52.3806 14.0829 52.2724 13.8955C52.1643 13.7081 52.1045 13.4302 52.1399 13.2781C52.255 12.7824 52.1554 10.7878 51.9571 9.61106C51.8504 8.97869 51.7887 8.29233 51.8202 8.08565C51.8939 7.6 51.1597 7.50912 49.9423 7.8534C48.8531 8.16124 46.2914 8.75478 45.6514 8.84746C45.3919 8.885 43.8556 9.21275 42.2374 9.5757C39.6302 10.1604 38.1877 10.5221 36.3199 11.0592C36.0185 11.1459 35.5574 11.2439 35.2953 11.277C34.8427 11.3339 33.4577 11.7442 30.8202 12.6023C28.8016 13.2591 20.8707 14.8706 18.4657 15.1127C18.0006 15.1594 17.2854 15.4149 16.8763 15.6804C16.1766 16.1345 16.1244 16.2722 15.9978 18.0072ZM32.5148 7.22381C33.3259 7.28994 33.974 8.39506 33.6838 9.21767C33.2611 10.4156 31.7372 10.657 31.1469 9.61949C30.832 9.0657 30.8457 8.78172 31.225 8.00249C31.5818 7.26961 31.7598 7.16207 32.5148 7.22381ZM23.2551 18.095C23.3808 18.3128 22.0964 21.2377 21.5606 21.9528C21.4938 22.0421 20.8807 23.167 20.1983 24.453C18.9341 26.8348 18.3425 27.4208 17.8494 26.7797C17.6361 26.5024 17.9232 25.7984 19.2402 23.3695C20.1531 21.6862 21.1929 19.865 21.5514 19.3224C22.2891 18.2053 23.0163 17.6815 23.2551 18.095ZM27.5961 17.4596C27.7048 17.5172 27.7186 17.7785 27.6268 18.0402C27.2547 19.1042 24.382 24.4735 23.419 25.9058C22.8516 26.7494 22.369 27.5073 22.3463 27.5898C22.3237 27.6725 21.8909 28.3175 21.3845 29.0233C20.8782 29.7292 20.2537 30.686 19.9969 31.1492C19.7399 31.6127 19.2634 32.1458 18.9375 32.3339C18.4344 32.6244 18.3178 32.6069 18.1629 32.2187C18.0355 31.8988 18.2214 31.3809 18.7825 30.4937C19.2234 29.7963 19.724 29.1358 19.8949 29.0258C20.0657 28.9161 20.1973 28.7455 20.1875 28.6471C20.1776 28.5489 20.5408 27.9161 20.9947 27.2412C21.4486 26.5663 22.1705 25.4257 22.5989 24.7067C23.0274 23.9877 23.6423 22.9607 23.9653 22.4245C24.2884 21.8882 24.6854 21.1697 24.8478 20.8279C25.3455 19.7787 26.7212 17.7462 27.0693 17.5452C27.2507 17.4405 27.4877 17.4021 27.5961 17.4596ZM55.177 4.78696C55.249 5.68239 55.5034 9.53816 55.7427 13.3556C55.9821 17.1728 56.2211 20.7254 56.2738 21.2502C56.3265 21.7749 56.4234 22.7977 56.489 23.5232C56.727 26.1542 56.8365 27.1488 56.9928 28.1008C57.0804 28.6342 57.1773 29.283 57.2086 29.5425C57.2398 29.8021 57.3284 30.2619 57.4054 30.5644C57.4826 30.8668 57.5844 31.5815 57.6318 32.1525C57.6921 32.8798 57.8128 33.2155 58.035 33.2735C58.335 33.3519 58.3293 32.502 58.0086 29.4592C57.9603 29.0013 57.8539 27.9271 57.7719 27.0723C57.6902 26.2174 57.5158 24.9554 57.3846 24.2678C57.2535 23.5802 57.1222 22.2933 57.0928 21.4082C56.9921 18.3639 56.6379 11.9361 56.4995 10.6387C56.1457 7.32067 56.0812 6.60847 55.9865 4.97367C55.8935 3.37225 55.6643 2.80227 55.2173 3.06039C55.1235 3.11452 55.1053 3.89142 55.177 4.78696ZM29.6244 19.4399C30.0645 19.5996 29.7314 20.3319 26.1446 27.0845C22.9974 33.0097 23.1591 32.7544 22.667 32.576C22.4505 32.4973 22.2511 32.2882 22.2239 32.1108C22.1609 31.7025 25.1136 25.6141 26.097 24.1242C26.322 23.7834 26.7377 23.1088 27.021 22.6253C27.8036 21.2893 28.9942 19.462 29.1354 19.3805C29.2044 19.3407 29.4245 19.3673 29.6244 19.4399ZM15.7832 46.7724C15.8433 46.8764 16.0167 46.8899 16.1687 46.8021C16.3207 46.7143 16.4491 46.5267 16.4542 46.3849C16.4593 46.2432 16.2857 46.2299 16.0686 46.3552C15.8516 46.4805 15.7231 46.6683 15.7832 46.7724ZM12.6543 49.9846C12.4675 50.419 12.4919 50.4927 12.8265 50.5042C13.0409 50.5116 13.3209 50.459 13.4488 50.3874C13.773 50.2056 14.4196 49.2809 14.3305 49.1266C14.067 48.6701 12.9807 49.2261 12.6543 49.9846ZM19.339 46.4005C19.5011 46.3771 19.7167 46.2526 19.8183 46.1238C19.9197 45.9953 19.7872 46.0146 19.5235 46.1668C19.2599 46.319 19.1768 46.4243 19.339 46.4005ZM8.02754 52.9312C8.18963 52.9078 8.40531 52.7832 8.50684 52.6545C8.60828 52.526 8.47573 52.5452 8.21212 52.6974C7.9485 52.8496 7.86537 52.9549 8.02754 52.9312ZM6.79719 54.2315L6.40541 54.6598L6.89389 54.399C7.16253 54.2555 7.46413 53.981 7.56406 53.7888C7.72543 53.4781 7.71473 53.4595 7.46736 53.6213C7.31422 53.7213 7.01272 53.996 6.79719 54.2315ZM16.4514 49.3723C15.8465 50.5626 16.9641 50.1828 18.0348 48.8344C18.5569 48.1766 18.5837 48.0642 18.2045 48.1232C17.4312 48.2436 16.7944 48.6974 16.4514 49.3723ZM22.7187 45.7238C22.9586 45.6522 23.2812 45.6229 23.4355 45.6592C23.5899 45.6955 23.832 45.6582 23.9731 45.5767C24.1834 45.4553 24.1561 45.4042 23.8229 45.2945C23.5991 45.2208 23.161 45.3166 22.8494 45.5073C22.4621 45.7443 22.4207 45.8129 22.7187 45.7238ZM10.1278 53.2456C10.2016 53.6046 11.1898 53.3109 11.7625 52.7595L12.2142 52.3246L11.5813 52.3349C10.847 52.3471 10.0462 52.8488 10.1278 53.2456ZM5.42772 55.7398C5.29533 55.9334 5.05107 56.3015 4.88475 56.558C4.71843 56.8145 4.48633 57.0798 4.369 57.1475C4.25167 57.2152 3.95423 57.5497 3.7082 57.8909C3.46205 58.2318 2.95889 58.8436 2.59016 59.2503L1.91974 59.9894L2.93829 59.8532C3.49857 59.7783 4.17111 59.6893 4.43281 59.6556C4.69451 59.6218 5.52391 59.4644 6.27591 59.3058C9.54892 58.6156 13.1068 58.0167 14.3215 57.9515C14.5306 57.9404 15.0349 57.8243 15.4424 57.6938C15.8499 57.5632 16.3524 57.444 16.559 57.4286C16.7657 57.4135 17.3393 57.3044 17.8334 57.1862C18.8407 56.9455 21.7077 56.3991 22.439 56.3082C22.7015 56.2758 23.1659 56.1835 23.4712 56.1036C23.9858 55.9686 24.4351 55.9082 27.2044 55.6012C27.7646 55.5389 28.2724 55.4595 28.333 55.4245C28.3936 55.3895 29.0619 55.2994 29.818 55.2245C30.5739 55.1494 31.6138 55.0204 32.1284 54.9378C32.6431 54.8551 33.188 54.8125 33.3391 54.8431C33.4905 54.8738 33.7706 54.8085 33.9619 54.6981C34.1531 54.5877 34.5033 54.4867 34.7398 54.4735C34.9764 54.4606 35.9117 54.2767 36.8182 54.0647L38.4667 53.6794L39.9857 52.2455C40.8212 51.4568 41.637 50.6418 41.7985 50.4345C42.3691 49.7018 44.8087 47.1739 45.1173 46.9957C45.2895 46.8963 45.4344 46.6992 45.4394 46.5574C45.4445 46.4157 45.6851 46.1633 45.9742 45.9964C46.2633 45.8294 46.5403 45.5739 46.5898 45.4285C46.6395 45.2829 47.1995 44.6692 47.8345 44.0644C49.4888 42.4885 51.6673 40.1491 51.7714 39.8367C51.8202 39.6899 52.0129 39.4818 52.1996 39.374C52.3862 39.2663 52.7477 38.8304 53.0029 38.4055C53.2581 37.9806 53.5402 37.5906 53.6295 37.539C53.7188 37.4874 54.0429 37.1083 54.3497 36.6967L54.9074 35.9483L53.9645 36.3075C52.7491 36.7704 52.0732 37.3326 51.2714 38.5464C50.9153 39.0856 50.4937 39.6018 50.3346 39.6937C50.1753 39.7857 49.826 40.0933 49.5582 40.3771C49.2904 40.6612 48.7416 41.219 48.3386 41.617C47.1084 42.8317 46.0205 43.9758 45.7143 44.377C45.5542 44.5867 45.2748 44.8997 45.0934 45.0726C44.912 45.2454 43.7677 46.5508 42.5505 47.9735C41.3333 49.3962 40.1179 50.778 39.8498 51.0441C39.5815 51.31 38.9889 51.9461 38.5328 52.4573C37.8742 53.1956 37.6024 53.3838 37.2115 53.3725C36.9409 53.3647 36.5877 53.4344 36.4267 53.5274C36.2656 53.6204 35.9392 53.7054 35.7013 53.7163C35.4634 53.727 34.7554 53.8427 34.128 53.9736C33.5005 54.1042 32.5546 54.2592 32.0261 54.3178C31.4977 54.3766 29.6434 54.6515 27.9056 54.9291C26.1677 55.2064 24.0879 55.492 23.2836 55.5634C22.4792 55.6349 21.0103 55.8158 20.019 55.9655C19.028 56.1152 17.7466 56.2837 17.1716 56.3401C16.5965 56.3964 15.4154 56.6066 14.5469 56.807C13.6785 57.0073 12.7349 57.1662 12.4502 57.1601C12.1653 57.1537 11.3055 57.2584 10.5394 57.3926C9.77325 57.5266 8.89137 57.625 8.57958 57.6109C8.26779 57.5969 7.7563 57.6779 7.44297 57.791C6.45539 58.1477 5.60484 57.9912 5.35615 57.4073C5.23336 57.1193 5.25137 56.6901 5.39615 56.4538C5.54082 56.2173 5.67051 55.9439 5.68423 55.8459C5.69794 55.7479 5.90202 55.5036 6.13766 55.303C6.53724 54.963 6.53583 54.9535 6.11723 55.1631C5.87035 55.2867 5.56011 55.5463 5.42772 55.7398ZM27.9818 43.1066C28.0048 43.1465 28.2222 43.124 28.4645 43.0568C28.7071 42.9894 28.8126 42.8848 28.6989 42.8248C28.5006 42.7195 27.8956 42.9573 27.9818 43.1066ZM20.1056 48.5001C19.7874 48.9248 19.5828 49.3687 19.651 49.4868C19.7191 49.6049 20.2397 49.5806 20.8078 49.4333C21.7661 49.1846 21.8829 49.0982 22.4299 48.2351L23.0192 47.3051L22.0936 47.3853C20.935 47.486 20.815 47.5532 20.1056 48.5001ZM7.92588 55.6716C7.50395 56.2225 7.50717 56.256 7.9826 56.2697C8.66159 56.2892 9.38772 55.8445 9.47427 55.356C9.53008 55.0409 9.44825 54.9571 9.08397 54.958C8.4894 54.9594 8.45582 54.98 7.92588 55.6716ZM32.0447 42.4137C32.1783 42.4848 32.4759 42.4323 32.7061 42.2974C33.1073 42.0622 33.0991 42.0533 32.5013 42.0795C31.817 42.1097 31.6718 42.2159 32.0447 42.4137ZM27.2649 44.8589C27.4755 44.8004 27.8216 44.6029 28.034 44.42C28.2464 44.237 28.0741 44.2848 27.6511 44.5262C27.2281 44.7677 27.0543 44.9174 27.2649 44.8589ZM13.9713 52.7058C13.7687 53.1572 13.779 53.1714 14.2934 53.152C14.6937 53.1369 14.9245 52.9993 15.2308 52.5929C15.7648 51.8841 15.7577 51.9084 15.478 51.76C15.1345 51.5778 14.2201 52.1519 13.9713 52.7058ZM30.8173 44.2425C31.5024 44.2962 32.7775 43.8863 32.6441 43.6552C32.5335 43.4636 31.3091 43.6798 30.6785 44.0022C30.2911 44.2002 30.2917 44.2013 30.8173 44.2425ZM24.7261 47.7878C24.0013 48.7294 24.0509 49.0646 24.8471 48.6049C25.651 48.1408 26.6593 46.8786 26.355 46.7174C26.0333 46.5466 25.3211 47.0146 24.7261 47.7878ZM17.3727 52.4035C17.3106 52.5393 16.8134 53.2296 16.2679 53.9372L15.276 55.2237L16.7544 55.0853C17.5676 55.0092 18.3152 54.8996 18.4158 54.8415C18.5163 54.7835 18.7935 54.7274 19.0316 54.7171C19.2698 54.7068 19.8908 54.6397 20.4119 54.5682C22.097 54.3367 22.2944 54.3111 23.2016 54.207C26.032 53.8822 25.8888 53.9715 27.7365 51.378C28.6775 50.0573 28.7855 49.7986 28.448 49.6762C28.2291 49.5967 27.9023 49.6169 27.7218 49.721C27.5414 49.8252 27.3011 49.8862 27.1876 49.8566C26.9493 49.7944 26.2463 49.9176 22.6271 50.6568C21.1808 50.9521 19.6605 51.2078 19.2487 51.2252C18.5287 51.2554 17.6434 51.8114 17.3727 52.4035ZM11.4249 55.5937C11.2382 55.7038 11.3451 55.7755 11.7437 55.8081C12.4071 55.8621 13.3249 55.2964 13.2404 54.8857C13.1771 54.5773 12.5331 54.7104 12.0465 55.1326C11.8591 55.2951 11.5794 55.5027 11.4249 55.5937ZM36.6788 41.4053C37.6698 41.287 37.6681 41.288 37.4673 40.9402C37.3499 40.7369 37.1002 40.7764 36.5887 41.0788L35.874 41.5012L36.6788 41.4053ZM28.1057 47.4766L27.552 48.2376L28.2787 47.9975C29.7477 47.5122 31.1338 46.795 31.0116 46.5834C30.9459 46.4697 31.0289 46.2976 31.1957 46.2013C31.7538 45.8791 31.1028 45.665 30.2043 45.8754C29.2373 46.1016 28.9427 46.3264 28.1057 47.4766ZM2.30048 61.9377C2.37604 62.0677 3.35844 62.0261 4.48404 61.8456C6.94267 61.4512 8.04401 61.299 8.62274 61.2738C8.8609 61.2635 9.1517 61.1995 9.26903 61.1318C9.38637 61.0641 9.8762 60.9632 10.3574 60.9077C11.404 60.7869 11.4744 60.7763 14.7427 60.2452C16.1565 60.0154 17.9657 59.762 18.763 59.6819C19.5604 59.6018 20.6876 59.4623 21.268 59.3717C21.8484 59.2811 22.5606 59.17 22.8508 59.1246C23.141 59.0791 23.6163 59.0061 23.9074 58.9622C24.1985 58.9183 24.9506 58.7768 25.5791 58.6476C26.8005 58.3967 27.6454 58.2679 28.3366 58.2277C28.5728 58.214 28.862 58.1472 28.9793 58.0795C29.0966 58.0117 29.5865 57.9108 30.0677 57.8553C31.4065 57.7009 31.7536 57.6464 33.6188 57.2977C34.5706 57.1199 35.8919 56.918 36.5552 56.8493C38.9094 56.6052 39.3016 56.5057 39.4057 56.1268C39.6174 55.3569 38.612 55.3042 34.85 55.8882C34.5273 55.9382 34.0703 55.9904 33.8341 56.0041C33.5979 56.0178 33.2523 56.1166 33.0661 56.2236C32.8799 56.3306 32.1803 56.4506 31.5117 56.4902C30.8429 56.5299 30.223 56.6044 30.1341 56.6557C30.0453 56.707 29.1816 56.8208 28.2148 56.9089C26.3254 57.0809 23.2236 57.5972 20.1134 58.2573C19.0488 58.4833 18.0569 58.658 17.9093 58.6459C17.7616 58.6337 16.9937 58.7979 16.2028 59.0108C15.4118 59.2237 14.641 59.3728 14.4895 59.3419C14.3383 59.3111 14.0648 59.3723 13.8819 59.4779C13.5742 59.6556 12.0206 59.9098 9.53647 60.1888C8.97672 60.2518 8.43339 60.3525 8.3291 60.4127C8.11226 60.5379 5.37872 61.104 3.64106 61.3835C2.19973 61.6153 2.12971 61.6441 2.30048 61.9377ZM40.1858 40.6337C40.2113 40.7585 40.5773 40.8101 40.9988 40.7487C41.4206 40.6871 42.1194 40.5953 42.5518 40.5447C43.5393 40.4291 44.408 39.9379 44.4953 39.4461C44.5486 39.1453 44.3231 39.1239 43.3786 39.3396C42.7277 39.4883 41.889 39.6773 41.5148 39.7598C40.7024 39.9389 40.1214 40.3208 40.1858 40.6337ZM34.885 43.5517C34.9416 43.6497 35.1101 43.7326 35.2596 43.7364C35.6401 43.7456 36.0339 43.2132 35.7557 43.0657C35.4659 42.9117 34.7472 43.3131 34.885 43.5517ZM38.4429 42.9604C38.5228 43.3591 41.69 42.7578 42.2252 42.2423L42.6895 41.7953L42.0593 41.8102C41.7127 41.8183 41.2951 41.8918 41.1313 41.9735C40.9676 42.0552 40.418 42.0994 39.91 42.0718C38.9958 42.0222 38.3351 42.4226 38.4429 42.9604ZM32.942 46.4465L32.7042 47.0799L33.3754 46.6929C33.994 46.336 34.5235 45.5821 34.3574 45.2944C34.1976 45.0175 33.1618 45.8606 32.942 46.4465ZM46.5802 39.2354C46.3666 39.7403 46.3702 39.747 46.8932 39.8036C47.528 39.8724 48.9172 39.1107 49.4138 38.422C49.8478 37.8197 49.5693 37.6136 48.8643 38.0153C48.5796 38.1774 48.1696 38.3024 47.9532 38.2928C47.3837 38.2676 46.8286 38.6486 46.5802 39.2354ZM36.2159 45.6146C36.017 45.8905 35.8835 46.1662 35.919 46.2277C36.0505 46.4541 38.4422 46.0548 39.0263 45.709C39.3586 45.5121 39.7705 45.1209 39.9416 44.8394C40.2284 44.3682 40.2192 44.3346 39.8256 44.4171C39.5906 44.466 38.9132 44.5626 38.3204 44.6317C37.0478 44.7798 36.7005 44.942 36.2159 45.6146ZM31.182 49.4266C31.2182 49.6036 31.4244 49.6021 31.735 49.4228C32.0571 49.2368 32.1702 49.033 32.0587 48.8397C31.8532 48.4839 31.0932 48.9926 31.182 49.4266ZM44.2903 42.2754C44.3178 42.4541 44.4214 42.6214 44.5204 42.6473C44.7565 42.7091 46.0715 41.946 46.3802 41.5685C46.5968 41.3031 46.5717 41.2671 46.1327 41.2147C45.4774 41.1361 44.2259 41.8569 44.2903 42.2754ZM33.9076 48.8321C33.3696 49.3668 33.5465 49.4499 34.9001 49.2987C36.2901 49.1435 36.8884 48.8609 37.1739 48.225C37.3372 47.8614 37.3057 47.7719 37 47.7286C36.0696 47.5967 34.636 48.1085 33.9076 48.8321ZM28.7353 52.4921C28.2992 53.0729 28.3341 53.3481 28.8334 53.2667C29.2504 53.1988 30.2353 51.7836 30.1501 51.3747C30.0782 51.0289 29.4783 51.5027 28.7353 52.4921ZM41.9451 44.8785C41.6086 45.3991 41.6162 45.4278 42.1172 45.5322C42.5231 45.6168 42.7556 45.5239 43.1476 45.1208C43.9705 44.2744 44.0093 44.0671 43.342 44.0824C42.5728 44.1 42.3758 44.2122 41.9451 44.8785ZM56.5001 37.0173C55.3559 38.0347 54.8191 38.5962 54.1389 39.4875C52.8103 41.2286 51.799 42.3811 51.3948 42.6144C51.2123 42.7198 50.9584 42.9706 50.8304 43.1717C50.7023 43.3728 50.1618 43.9778 49.6291 44.5163C49.0964 45.0547 48.4844 45.6882 48.2691 45.924C48.0538 46.1599 47.5499 46.6819 47.1493 47.0838C46.7487 47.4857 46.2895 47.9855 46.1289 48.1943C45.9681 48.4029 45.3568 49.0375 44.7702 49.6045C44.1836 50.1713 43.5707 50.8033 43.4083 51.0091C43.2459 51.2147 42.677 51.8232 42.1439 52.3611C40.3848 54.1371 40.1894 54.5103 40.6243 55.2635C41.0004 55.9149 41.5483 55.9663 41.5703 55.3523C41.5754 55.2106 41.786 54.9754 42.0385 54.8296C42.2909 54.6839 42.6505 54.372 42.8376 54.1368C43.0246 53.9015 43.7441 53.1956 44.4363 52.5681C45.1285 51.9408 45.8681 51.2294 46.0798 50.9873C46.2916 50.7452 47.109 49.8698 47.8964 49.0419C48.6838 48.2141 49.7145 47.1103 50.1868 46.5891C50.6592 46.068 51.4797 45.1979 52.0101 44.6554C52.5405 44.113 53.1517 43.478 53.3681 43.2441C53.5845 43.0101 54.2377 42.3484 54.8195 41.7732C55.4013 41.1981 56.0097 40.5584 56.1715 40.3515C56.3332 40.1445 56.9847 39.3803 57.6193 38.653C58.2539 37.9258 58.8458 37.0582 58.9345 36.7248L59.0958 36.1187L58.4313 36.0131C58.0659 35.955 57.7549 35.9143 57.7402 35.923C57.7257 35.9314 57.1675 36.424 56.5001 37.0173ZM31.9972 51.8211C31.698 52.2858 31.4499 52.7553 31.4461 52.8647C31.4326 53.2455 33.4271 52.579 33.7572 52.0924C33.9244 51.846 34.2243 51.4785 34.4238 51.2758C34.9541 50.7373 34.7533 50.6167 33.6408 50.8053C33.0965 50.8977 32.6264 50.9738 32.5962 50.9746C32.5658 50.9755 32.2962 51.3565 31.9972 51.8211ZM39.0724 48.2777C38.6456 48.879 38.6665 49.0251 39.1923 49.1114C39.6499 49.1867 41.0609 47.6074 40.855 47.2506C40.6757 46.94 39.5696 47.5776 39.0724 48.2777ZM36.1049 51.7237L35.6871 52.2465L36.4947 52.0956C37.159 51.9715 37.3697 51.8428 37.6819 51.3701C38.418 50.2559 37.0288 50.5674 36.1049 51.7237Z" fill="#FBE8A6"/>
</svg>
