<svg width="29" height="38" viewBox="0 0 29 38" fill="none" xmlns="http://www.w3.org/2000/svg">
<path fill-rule="evenodd" clip-rule="evenodd" d="M19.9939 0.468189C19.0443 1.04869 17.1439 2.55481 15.6632 3.90025C12.5634 6.71698 11.2049 7.84752 10.3295 8.3388C9.79795 8.63712 8.63031 9.44195 7.73486 10.1275C6.83941 10.813 5.14568 12.0137 3.97084 12.7957C2.796 13.5776 1.43315 14.6001 0.942371 15.0676L0.0500839 15.9178L0.0984061 17.1205C0.154811 18.522 0.776319 19.9307 3.23389 24.2278C4.04394 25.6442 4.70657 26.8418 4.70657 26.8895C4.70657 26.9372 4.25638 27.1887 3.70604 27.4488C2.49852 28.0193 0.633111 29.9792 0.202606 31.1295C-0.355294 32.62 0.291518 35.3569 1.49974 36.6189C3.17696 38.3706 5.85136 38.4698 7.38677 36.8375C8.76474 35.3725 9.70693 32.2364 9.28749 30.5111C8.80866 28.5418 7.58287 25.7958 5.50362 22.0351C4.29645 19.8515 3.25726 17.8976 3.19435 17.693C3.05114 17.2275 3.37587 16.9422 6.28801 14.9746C7.49606 14.1583 8.88247 13.1897 9.36902 12.8223L10.2536 12.1542L11.4339 15.0899C12.083 16.7047 12.6142 18.1232 12.614 18.2422C12.6138 18.3613 12.1678 18.8918 11.6228 19.4209C9.93026 21.0647 9.80058 21.9511 10.7985 25.0519C11.9754 28.7083 13.5101 29.9171 15.5871 28.8234C16.8955 28.1346 17.7096 26.5268 17.7096 24.6317C17.7096 23.259 17.2032 21.6336 15.0385 16.0576C14.0761 13.5787 13.2488 11.2937 13.2002 10.9798C13.116 10.4376 13.2369 10.2954 15.6301 8.12535C19.2713 4.82386 20.4727 3.7898 20.6671 3.7898C20.8598 3.7898 22.9811 8.83171 22.9811 9.29016C22.9811 9.45156 22.7635 9.70128 22.4978 9.84491C21.72 10.2655 20.9271 11.2359 20.4072 12.4039C20.0229 13.2672 19.9083 13.8294 19.8526 15.1242C19.7839 16.725 19.7955 16.7823 20.4594 18.1071C21.0419 19.2695 21.2529 19.5194 21.9756 19.9022C24.6713 21.33 27.432 19.8538 28.6279 16.3452C29.1136 14.9205 29.1252 13.0267 28.6548 11.9506C28.3079 11.1564 27.7056 10.4751 26.8816 9.94429C26.5871 9.7546 26.0577 8.59922 24.9343 5.69398C23.0731 0.880942 22.9392 0.606197 22.284 0.256553C21.5393 -0.140967 20.8925 -0.0811216 19.9939 0.468189ZM25.4411 12.9174C25.7765 13.0811 25.8934 13.2946 25.9354 13.8199C26.0512 15.2662 24.931 17.3911 24.0528 17.3911C23.529 17.3911 23.021 16.7973 22.8797 16.0199C22.7122 15.099 23.0856 13.5336 23.6126 12.9467C24.0735 12.4335 24.4383 12.4277 25.4411 12.9174ZM14.1949 22.6497C14.6365 23.5429 14.8089 24.7666 14.5781 25.3705C14.4121 25.8048 14.3857 25.7798 13.9482 24.7748C13.4462 23.6219 13.1582 22.5035 13.2724 22.1515C13.4168 21.7067 13.8424 21.9364 14.1949 22.6497ZM6.06731 30.6665C6.33423 30.895 6.3532 32.1026 6.10457 33.0269C5.64226 34.745 4.181 35.4086 3.47989 34.2186C2.83923 33.1314 2.85083 32.696 3.54368 31.8478C4.86295 30.2329 4.87244 30.2251 5.37482 30.3553C5.63435 30.4224 5.94607 30.5626 6.06731 30.6665Z" fill="black"/>
</svg>
