<svg width="27" height="42" viewBox="0 0 27 42" fill="none" xmlns="http://www.w3.org/2000/svg">
<path fill-rule="evenodd" clip-rule="evenodd" d="M10.8416 0.105857C10.3006 0.200363 9.71711 0.392705 9.54482 0.533133C9.16118 0.845937 8.43433 2.10957 6.2375 6.28273C5.30629 8.05195 4.31819 9.89882 4.04203 10.3869C3.76588 10.8749 3.22892 11.8233 2.8489 12.4944C2.46865 13.1655 1.70973 14.3409 1.16216 15.106C-0.710867 17.7242 -0.433808 18.7487 2.82993 21.2707C4.05174 22.2146 6.08012 23.9843 7.33716 25.2033L9.62317 27.4194L8.61677 28.3667C7.69573 29.2338 7.61647 29.3936 7.6797 30.2541C7.7375 31.0426 7.67179 31.222 7.27054 31.3678C7.00749 31.4634 6.50214 31.9157 6.14763 32.3728C5.57748 33.1082 5.50365 33.3853 5.50794 34.7736C5.51426 36.7207 6.22982 38.3721 7.76731 39.987C9.09841 41.3853 10.3629 42 11.9078 42C13.2371 42 14.0331 41.6663 14.9044 40.7441C16.6526 38.8939 17.6109 34.902 17.1076 31.567C16.9699 30.6554 16.8077 29.4368 16.7472 28.8596C16.6431 27.8677 16.5291 27.7142 14.6865 26.0865C13.6135 25.1386 11.7182 23.4011 10.4742 22.2253C9.23028 21.0493 7.52683 19.5152 6.68843 18.8159C5.85003 18.1169 5.16427 17.4496 5.16427 17.3333C5.16427 17.2169 5.92635 15.8059 6.858 14.198C7.78944 12.5898 9.23728 10.0038 10.0757 8.45105C10.9139 6.89835 11.6529 5.6254 11.7179 5.62251C11.783 5.61963 12.4922 6.49082 13.2938 7.55834C14.0954 8.62609 15.541 10.4179 16.5061 11.5405C17.4711 12.663 18.2608 13.6449 18.2608 13.7228C18.2608 13.8004 17.9532 14.2847 17.577 14.7992C16.6282 16.0974 15.7871 18.5542 15.7837 20.0372C15.7806 21.5622 16.6192 23.1051 18.1914 24.467C19.7136 25.7852 20.8573 26.3086 22.2593 26.3285C23.6701 26.3485 24.3603 25.9268 25.4148 24.4C27.2856 21.6911 27.5602 16.7084 25.9188 15.2511C25.6542 15.0162 25.2051 14.3746 24.921 13.8255C24.606 13.2168 23.8419 12.3795 22.9631 11.6803C20.9618 10.0878 19.6018 8.61699 17.1519 5.39534C14.9291 2.47251 12.7984 0.164869 12.1892 0.0202252C11.9891 -0.0270281 11.3828 0.01135 10.8416 0.105857ZM22.1994 17.6464C22.3927 17.9175 22.551 18.5721 22.551 19.101C22.551 20.2231 22.1272 22.0338 21.8643 22.0338C21.5832 22.0338 20.0672 20.2165 20.0672 19.8792C20.0672 19.0888 21.2052 17.1532 21.6699 17.1532C21.7679 17.1532 22.0061 17.375 22.1994 17.6464ZM12.8074 32.3497C12.9154 33.5634 12.4161 36.7791 12.0431 37.272C11.631 37.8169 11.0864 37.4783 10.3819 36.24C9.85372 35.3111 9.85055 35.2752 10.2434 34.6218C10.4643 34.2542 10.6452 33.5643 10.6452 33.0884C10.6452 32.4249 10.7795 32.1194 11.2221 31.7775C12.1287 31.0769 12.713 31.2877 12.8074 32.3497Z" fill="black"/>
</svg>
