<svg width="17" height="32" viewBox="0 0 17 32" fill="none" xmlns="http://www.w3.org/2000/svg">
<path fill-rule="evenodd" clip-rule="evenodd" d="M10.2542 0.373408C9.25477 1.07364 8.49494 5.80883 8.25866 12.806C8.17537 15.2738 8.05185 17.7545 7.98419 18.3186L7.86093 19.3442L6.52193 19.3821C4.80339 19.4306 2.81859 20.2803 2.50671 21.1013C2.37755 21.4413 1.92652 21.9656 1.50445 22.2664C0.478349 22.9974 -0.184617 24.9693 0.0457678 26.6052C0.453747 29.5022 2.24455 31.6575 4.49433 31.9596C7.29124 32.3347 9.34139 30.0984 10.5753 25.3262C10.8062 24.4335 11.1071 23.5673 11.2439 23.4017C11.3805 23.2361 11.6065 20.8131 11.746 18.0173C11.8854 15.2215 12.0804 11.7883 12.1791 10.3881L12.3587 7.84182L13.0834 9.17715C13.9501 10.7745 14.7274 11.3583 15.672 11.1209C16.4941 10.9145 17.1991 9.67893 16.9487 8.88306C16.4818 7.39928 13.4099 1.31773 12.8115 0.692883C12.0514 -0.100931 11.1007 -0.219902 10.2542 0.373408ZM6.77845 24.4394C6.62085 25.9685 5.76798 27.8728 5.13167 28.1169C4.5871 28.3261 3.77319 27.3144 3.77524 26.4308C3.77934 24.4012 4.76213 23.0981 6.3082 23.0722C6.89633 23.0625 6.91504 23.1163 6.77845 24.4394Z" fill="black"/>
</svg>
