<svg width="14" height="33" viewBox="0 0 14 33" fill="none" xmlns="http://www.w3.org/2000/svg">
<path fill-rule="evenodd" clip-rule="evenodd" d="M3.06332 0.415017C2.29412 1.29633 2.07367 2.01275 2.23695 3.10142C2.32593 3.69393 3.39909 7.6684 4.62187 11.9334C5.84465 16.1984 6.84524 19.8354 6.84524 20.0157C6.84524 20.1957 6.65909 20.3433 6.43168 20.3433C5.74001 20.3433 1.86888 22.6433 1.11334 23.5032C-0.585876 25.4367 -0.317213 28.5353 1.763 30.9947C2.5839 31.9652 4.63802 33.0045 5.72684 33C8.39484 32.9893 11.0444 29.8656 11.6387 26.0309C11.9518 24.0091 12.0671 24.5472 9.22692 14.7939C8.03968 10.7174 7.10197 7.28126 7.14323 7.15809C7.18449 7.03492 8.11275 7.82559 9.20629 8.91525C10.9388 10.6414 11.3084 10.8969 12.0791 10.9016C13.2131 10.9083 13.7569 10.4926 13.959 9.46455C14.1163 8.66518 14.0107 8.53705 10.0789 4.74634C7.85577 2.60303 5.74349 0.654652 5.38486 0.416755C4.5488 -0.138256 3.54722 -0.139001 3.06332 0.415017ZM8.05136 24.5648C8.31431 26.427 6.86338 29.283 5.65427 29.283C5.08985 29.283 4.23739 28.4104 3.8795 27.4665C3.48583 26.4288 3.55393 26.0548 4.13624 26.0548C4.42329 26.0548 5.17361 25.5472 5.80339 24.9269C7.08855 23.6609 7.90498 23.5293 8.05136 24.5648Z" fill="black"/>
</svg>
