<svg width="18" height="36" viewBox="0 0 18 36" fill="none" xmlns="http://www.w3.org/2000/svg">
<path fill-rule="evenodd" clip-rule="evenodd" d="M14.0764 0.770919C11.2558 2.36721 7.19795 5.21749 6.74606 5.91945C6.09637 6.92981 6.15644 11.3651 6.88731 16.3518C7.62467 21.3818 7.6355 21.2162 6.56747 21.2181C5.52623 21.2201 4.5042 21.7252 3.07493 22.9437C-0.299355 25.8207 0.00533157 25.3577 0.00830809 27.603C0.0104728 29.2324 0.167146 29.9908 0.820085 31.5298C2.61114 35.7518 5.43829 37.0785 8.43185 35.1013C10.5284 33.7167 11.686 30.8736 11.942 26.4797C12.0884 23.9631 11.9969 22.8729 11.2804 18.5983C10.3095 12.8056 10.0205 10.0317 10.2551 8.76284C10.4042 7.95615 10.7598 7.64114 13.3096 6.05835C16.9303 3.81081 18 2.81479 18 1.69198C18 0.725997 17.1817 -0.00765655 16.1132 6.03152e-05C15.737 0.00281634 14.8205 0.349523 14.0764 0.770919ZM7.47531 25.7989C8.30115 26.8123 7.47666 31.083 6.3353 31.7054C5.60172 32.1053 5.33736 31.8575 4.44359 29.9338C3.49219 27.885 3.47757 27.6118 4.30315 27.2921C4.6579 27.1546 5.21397 26.6618 5.53949 26.1963C6.19297 25.2618 6.91653 25.1129 7.47531 25.7989Z" fill="black"/>
</svg>
